<?xml version="1.0" encoding="UTF-8" standalone="no"?>
<svg
   width="64"
   height="64"
   fill="none"
   version="1.1"
   viewBox="1 1 58.666667 58.666667"
   id="svg17"
   sodipodi:docname="brave.svg"
   inkscape:version="1.3.2 (091e20ef0f, 2023-11-25, custom)"
   xmlns:inkscape="http://www.inkscape.org/namespaces/inkscape"
   xmlns:sodipodi="http://sodipodi.sourceforge.net/DTD/sodipodi-0.dtd"
   xmlns="http://www.w3.org/2000/svg"
   xmlns:svg="http://www.w3.org/2000/svg">
  <sodipodi:namedview
     id="namedview17"
     pagecolor="#ffffff"
     bordercolor="#666666"
     borderopacity="1.0"
     inkscape:showpageshadow="2"
     inkscape:pageopacity="0.0"
     inkscape:pagecheckerboard="0"
     inkscape:deskcolor="#d1d1d1"
     inkscape:zoom="5.7308001"
     inkscape:cx="14.832135"
     inkscape:cy="26.872339"
     inkscape:window-width="1920"
     inkscape:window-height="1050"
     inkscape:window-x="0"
     inkscape:window-y="30"
     inkscape:window-maximized="1"
     inkscape:current-layer="svg17" />
  <g
     clip-rule="evenodd"
     fill-rule="evenodd"
     id="g16"
     transform="matrix(2.7366065,0,0,2.7366065,-2.3038916,-2.3039223)">
    <path
       d="m 9.6674,1.4373 c 0.11644,0 0.22705,-0.013585 0.33378,-0.044634 a 30.688,30.688 0 0 1 4.1791,0.010673 c 1.2624,0.098971 2.4849,0.37259 3.6677,0.82281 1.9649,0.80826 3.3107,2.2123 4.0345,4.2101 0.41432,1.2032 0.65883,2.4393 0.73355,3.7104 a 27.11,27.11 0 0 1 -0.11061,4.7768 11.527,11.527 0 0 1 -0.86745,3.2214 c -0.82475,1.7883 -2.1628,3.0215 -4.0122,3.6997 a 15.16,15.16 0 0 1 -4.6235,0.8005 20.787,20.787 0 0 1 -5.291,-0.40073 c -3.2136,-0.71511 -5.195,-2.6741 -5.946,-5.8761 a 18.481,18.481 0 0 1 -0.43372,-4.377 17.942,17.942 0 0 1 0.4997,-4.6439 c 0.78788,-2.9943 2.6877,-4.8496 5.7024,-5.5656 a 13.539,13.539 0 0 1 2.1337,-0.34446 z"
       fill="url(#a)"
       style="fill:url(#a);stroke-width:0.9703"
       id="path1" />
    <path
       d="M 18.491,7.183 H 18.47 A 12.52,12.52 0 0 0 17.499,6.202 1.535,1.535 0 0 0 16.518,5.911 c -0.256,-0.021 -0.49,0.04 -0.701,0.183 a 0.054,0.054 0 0 1 -0.065,0 A 106.88,106.88 0 0 1 14.48,4.811 186.835,186.835 0 0 0 9.562,4.8 C 9.146,5.238 8.722,5.67 8.29,6.094 a 0.054,0.054 0 0 1 -0.065,0 A 1.087,1.087 0 0 0 7.686,5.921 1.474,1.474 0 0 0 6.436,6.288 C 6.143,6.584 5.849,6.875 5.551,7.162 H 5.529 A 1.77,1.77 0 0 1 5.4,6.87 0.336,0.336 0 0 1 5.475,6.709 C 5.803,6.353 6.145,6.011 6.5,5.684 6.827,5.423 7.201,5.314 7.621,5.361 7.855,5.375 8.071,5.443 8.268,5.566 8.695,5.128 9.127,4.693 9.562,4.261 a 280.05,280.05 0 0 1 4.918,0 c 0.435,0.432 0.867,0.867 1.294,1.305 0.341,-0.201 0.708,-0.262 1.1,-0.184 0.27,0.048 0.507,0.163 0.711,0.345 a 33.5,33.5 0 0 1 1.003,1.025 c 0.024,0.04 0.042,0.084 0.054,0.13 z"
       fill="#f06246"
       id="path2" />
    <path
       d="m 18.47,7.183 a 10.34,10.34 0 0 0 -0.27,0.604 0.14,0.14 0 0 0 0,0.108 0.911,0.911 0 0 1 0.075,0.237 0.64,0.64 0 0 1 -0.075,0.194 0.14,0.14 0 0 0 0,0.108 c 0.113,0.32 0.231,0.637 0.356,0.949 A 300.629,300.629 0 0 1 16.82,16.09 c -0.233,0.513 -0.581,0.926 -1.046,1.24 A 87.528,87.528 0 0 1 12.344,19.638 0.94,0.94 0 0 1 11.46,19.508 125.768,125.768 0 0 1 8.204,17.288 2.856,2.856 0 0 1 7.05,15.55 248.066,248.066 0 0 1 5.486,9.425 L 5.853,8.39 A 1.575,1.575 0 0 1 5.767,8.11 L 5.853,7.83 A 4.898,4.898 0 0 0 5.551,7.16 C 5.849,6.874 6.143,6.583 6.435,6.287 A 1.474,1.474 0 0 1 7.686,5.92 c 0.195,0.01 0.375,0.068 0.54,0.173 a 0.054,0.054 0 0 0 0.064,0 C 8.722,5.668 9.146,5.237 9.562,4.799 c 1.64,-0.018 3.279,-0.014 4.918,0.01 0.42,0.432 0.844,0.86 1.272,1.284 a 0.054,0.054 0 0 0 0.065,0 c 0.211,-0.143 0.445,-0.204 0.7,-0.183 0.363,-0.015 0.69,0.082 0.982,0.29 0.342,0.31 0.666,0.638 0.97,0.982 z"
       fill="#ed5132"
       id="path3" />
    <path
       d="m 17.52,9.771 c -0.055,0.084 -0.12,0.164 -0.194,0.237 -0.674,0.6 -1.34,1.21 -1.995,1.834 -0.012,0.169 0.02,0.327 0.098,0.474 0.074,0.191 0.142,0.385 0.204,0.582 0.016,0.146 0.005,0.29 -0.032,0.432 a 2.604,2.604 0 0 1 -0.27,0.474 l -0.593,0.55 a 0.302,0.302 0 0 1 -0.28,0.065 7.562,7.562 0 0 1 -2.049,-1.434 62.68,62.68 0 0 1 -0.183,-0.238 0.294,0.294 0 0 1 0.043,-0.194 c 0.432,-0.385 0.86,-0.773 1.283,-1.164 a 0.32,0.32 0 0 0 0.119,-0.28 c -0.13,-0.352 -0.27,-0.697 -0.42,-1.036 -0.128,-0.298 -0.07,-0.554 0.172,-0.766 a 37.64,37.64 0 0 1 1.121,-0.463 c 0.374,-0.121 0.741,-0.262 1.1,-0.42 A 8.776,8.776 0 0 0 14.447,8.283 1.688,1.688 0 0 0 13.897,8.38 c -0.342,0.117 -0.68,0.246 -1.013,0.388 a 0.32,0.32 0 0 0 -0.108,0.205 c 0.024,0.14 0.052,0.277 0.086,0.41 0.105,0.49 0.216,0.979 0.334,1.466 a 0.305,0.305 0 0 1 -0.032,0.238 c -0.358,0.154 -0.732,0.24 -1.121,0.258 a 3.856,3.856 0 0 1 -1.143,-0.237 0.207,0.207 0 0 0 -0.054,-0.043 0.78,0.78 0 0 1 0,-0.259 C 10.959,10.318 11.071,9.829 11.18,9.34 11.206,9.224 11.235,9.109 11.266,8.995 A 0.337,0.337 0 0 0 11.18,8.79 C 10.77,8.615 10.353,8.457 9.929,8.315 A 7.06,7.06 0 0 0 8.527,8.38 0.496,0.496 0 0 0 8.419,8.423 c 0.364,0.178 0.738,0.332 1.122,0.464 0.372,0.132 0.739,0.28 1.1,0.442 0.2,0.198 0.25,0.431 0.15,0.7 -0.13,0.33 -0.263,0.661 -0.398,0.993 a 0.427,0.427 0 0 0 0.075,0.367 c 0.06,0.07 0.125,0.139 0.194,0.205 a 9.39,9.39 0 0 1 1.133,1.002 0.352,0.352 0 0 1 0,0.173 0.8,0.8 0 0 1 -0.162,0.216 c -0.31,0.306 -0.648,0.575 -1.014,0.808 -0.413,0.181 -0.8,0.4 -1.164,0.658 A 0.418,0.418 0 0 1 9.282,14.354 10.36,10.36 0 0 0 8.711,13.804 2.602,2.602 0 0 1 8.441,13.33 1.106,1.106 0 0 1 8.409,12.877 C 8.475,12.688 8.543,12.501 8.613,12.316 A 0.797,0.797 0 0 0 8.689,11.82 90.072,90.072 0 0 0 6.953,10.235 C 6.818,10.105 6.689,9.971 6.565,9.835 A 0.667,0.667 0 0 1 6.511,9.426 C 6.602,9.092 6.746,8.783 6.942,8.499 A 34.53,34.53 0 0 1 8.441,6.46 c 0.122,0.004 0.245,0.018 0.367,0.043 0.455,0.138 0.915,0.257 1.38,0.356 0.326,-0.08 0.65,-0.17 0.97,-0.27 a 2.563,2.563 0 0 1 1.338,-0.086 l 1.326,0.356 C 14.31,6.752 14.795,6.633 15.278,6.503 15.385,6.478 15.493,6.463 15.601,6.46 a 20.647,20.647 0 0 1 1.8,2.383 c 0.13,0.297 0.17,0.607 0.12,0.927 z"
       fill="#fefefe"
       id="path4" />
    <path
       d="M 5.53,7.162 H 5.551 C 5.668,7.377 5.769,7.599 5.853,7.83 5.823,7.924 5.795,8.018 5.767,8.11 H 5.745 A 6.517,6.517 0 0 0 5.411,7.485 0.273,0.273 0 0 1 5.519,7.226 0.106,0.106 0 0 0 5.529,7.162 Z m 12.94,0.021 h 0.021 a 0.426,0.426 0 0 1 0.14,0.302 c -0.14,0.2 -0.251,0.416 -0.334,0.647 H 18.275 A 0.911,0.911 0 0 0 18.2,7.895 0.14,0.14 0 0 1 18.2,7.787 C 18.284,7.582 18.374,7.38 18.47,7.183 Z"
       fill="#cdcaca"
       id="path5" />
    <path
       d="m 18.275,8.132 h 0.022 c 0.117,0.326 0.232,0.653 0.345,0.981 -0.03,0.089 -0.051,0.178 -0.065,0.27 H 18.556 A 24.412,24.412 0 0 1 18.2,8.434 0.14,0.14 0 0 1 18.2,8.326 0.643,0.643 0 0 0 18.275,8.132 Z M 5.745,8.11 H 5.767 C 5.787,8.206 5.815,8.3 5.853,8.39 L 5.486,9.426 H 5.465 A 1.475,1.475 0 0 1 5.411,9.059 C 5.529,8.745 5.641,8.429 5.745,8.11 Z"
       fill="#f06549"
       id="path6" />
    <path
       d="M 11.18,9.34 C 10.76,9.155 10.329,8.994 9.886,8.855 a 1.062,1.062 0 0 0 -0.302,0 A 0.071,0.071 0 0 0 9.541,8.887 9.795,9.795 0 0 1 8.419,8.423 0.496,0.496 0 0 1 8.527,8.38 7.06,7.06 0 0 1 9.929,8.315 c 0.424,0.142 0.84,0.3 1.25,0.475 0.053,0.058 0.081,0.126 0.087,0.205 -0.031,0.114 -0.06,0.229 -0.086,0.345 z"
       fill="#bf432a"
       id="path7" />
    <path
       d="m 14.544,8.844 a 1.869,1.869 0 0 0 -0.539,0.054 c -0.38,0.12 -0.755,0.26 -1.121,0.42 A 0.067,0.067 0 0 0 12.862,9.383 5.118,5.118 0 0 1 12.776,8.973 0.32,0.32 0 0 1 12.884,8.768 14.4,14.4 0 0 1 13.897,8.38 c 0.178,-0.063 0.361,-0.095 0.55,-0.097 0.405,0.02 0.804,0.066 1.197,0.14 -0.359,0.16 -0.726,0.3 -1.1,0.42 z"
       fill="#be432a"
       id="path8" />
    <path
       d="m 11.18,9.34 c -0.11,0.489 -0.22,0.978 -0.334,1.466 a 0.78,0.78 0 0 0 0,0.26 c 0.021,0.011 0.039,0.026 0.053,0.042 -0.03,0.128 -0.052,0.257 -0.064,0.388 -0.005,0.055 0.01,0.101 0.043,0.14 0.394,0.16 0.804,0.25 1.23,0.27 a 4.39,4.39 0 0 0 1.056,-0.27 0.162,0.162 0 0 0 0.043,-0.129 c -0.023,-0.11 -0.044,-0.222 -0.065,-0.334 0.003,-0.03 0.01,-0.06 0.022,-0.086 a 0.305,0.305 0 0 0 0.032,-0.238 C 13.078,10.362 12.966,9.873 12.862,9.383 a 0.067,0.067 0 0 1 0.022,-0.065 c 0.366,-0.16 0.74,-0.3 1.121,-0.42 0.177,-0.044 0.357,-0.062 0.54,-0.054 a 37.64,37.64 0 0 0 -1.122,0.463 c -0.243,0.212 -0.3,0.468 -0.173,0.766 a 0.12,0.12 0 0 0 -0.032,0.065 1.217,1.217 0 0 0 0,0.323 c 0.105,0.312 0.217,0.621 0.334,0.928 -0.423,0.39 -0.851,0.779 -1.283,1.164 a 0.294,0.294 0 0 0 -0.043,0.194 l 0.183,0.238 c -0.163,0.088 -0.21,0.217 -0.14,0.388 0.218,0.228 0.444,0.444 0.68,0.647 A 7.704,7.704 0 0 1 12.431,13.815 1.11,1.11 0 0 0 11.87,13.729 c -0.258,0.082 -0.51,0.179 -0.755,0.29 0.207,-0.195 0.419,-0.403 0.636,-0.625 0.098,-0.175 0.059,-0.312 -0.118,-0.41 a 0.8,0.8 0 0 0 0.162,-0.215 0.352,0.352 0 0 0 0,-0.173 9.39,9.39 0 0 0 -1.133,-1.002 2.595,2.595 0 0 1 -0.194,-0.205 c 0.13,-0.305 0.248,-0.614 0.356,-0.928 A 1.06,1.06 0 0 0 10.792,10.03 C 10.892,9.76 10.841,9.527 10.641,9.329 10.28,9.167 9.913,9.019 9.541,8.887 A 0.071,0.071 0 0 1 9.584,8.855 c 0.1,-0.015 0.201,-0.015 0.302,0 0.443,0.139 0.874,0.3 1.294,0.485 z"
       fill="#ed5233"
       id="path9" />
    <path
       d="m 18.556,9.383 h 0.021 c 0,0.098 0.021,0.192 0.065,0.28 a 321.759,321.759 0 0 1 -1.822,6.988 3.114,3.114 0 0 1 -1.003,1.197 95.788,95.788 0 0 1 -3.494,2.35 0.894,0.894 0 0 1 -0.776,-0.086 80.462,80.462 0 0 1 -3.58,-2.458 3.001,3.001 0 0 1 -0.766,-1.046 C 6.571,14.295 5.971,11.973 5.4,9.642 A 0.931,0.931 0 0 0 5.465,9.426 h 0.021 c 0.496,2.049 1.017,4.09 1.564,6.125 a 2.856,2.856 0 0 0 1.154,1.736 125.75,125.75 0 0 0 3.256,2.222 0.94,0.94 0 0 0 0.884,0.129 87.528,87.528 0 0 0 3.43,-2.308 2.926,2.926 0 0 0 1.046,-1.24 c 0.604,-2.23 1.183,-4.465 1.736,-6.707 z"
       fill="#cdcaca"
       id="path10" />
    <path
       d="m 17.52,9.771 c 0.02,0.158 0.024,0.316 0.011,0.475 a 0.55,0.55 0 0 1 -0.086,0.194 l -1.866,1.693 a 0.606,0.606 0 0 0 -0.15,0.183 0.857,0.857 0 0 1 -0.098,-0.475 79.836,79.836 0 0 1 1.995,-1.833 c 0.075,-0.073 0.14,-0.153 0.195,-0.237 z M 6.565,9.836 c 0.124,0.135 0.253,0.268 0.388,0.399 0.585,0.52 1.164,1.049 1.736,1.585 A 0.797,0.797 0 0 1 8.613,12.316 7.033,7.033 0 0 0 8.29,11.982 76.347,76.347 0 0 1 6.683,10.526 0.583,0.583 0 0 1 6.565,9.836 Z"
       fill="#be4229"
       id="path11" />
    <path
       d="m 10.792,10.03 c 0.04,0.14 0.05,0.285 0.032,0.431 -0.108,0.314 -0.227,0.623 -0.356,0.928 a 0.427,0.427 0 0 1 -0.075,-0.367 c 0.135,-0.332 0.268,-0.663 0.399,-0.992 z"
       fill="#bf442b"
       id="path12" />
    <path
       d="m 13.25,10.073 c 0.15,0.339 0.29,0.684 0.42,1.035 a 0.32,0.32 0 0 1 -0.118,0.28 23.43,23.43 0 0 1 -0.334,-0.927 1.217,1.217 0 0 1 0,-0.323 0.12,0.12 0 0 1 0.032,-0.065 z"
       fill="#bf452c"
       id="path13" />
    <path
       d="m 13.164,11.087 a 0.268,0.268 0 0 0 -0.021,0.086 c 0.02,0.112 0.041,0.223 0.064,0.334 a 0.162,0.162 0 0 1 -0.043,0.13 4.39,4.39 0 0 1 -1.057,0.27 3.754,3.754 0 0 1 -1.229,-0.27 0.185,0.185 0 0 1 -0.043,-0.14 c 0.012,-0.132 0.034,-0.261 0.064,-0.389 0.369,0.137 0.75,0.216 1.144,0.237 0.39,-0.018 0.763,-0.104 1.121,-0.258 z m -0.754,1.898 a 7.562,7.562 0 0 0 2.048,1.434 0.302,0.302 0 0 0 0.28,-0.065 l 0.594,-0.55 c 0.107,-0.15 0.197,-0.308 0.27,-0.474 0.074,0.368 -0.008,0.699 -0.249,0.992 a 9.54,9.54 0 0 1 -0.55,0.528 0.889,0.889 0 0 1 -0.194,0.13 0.14,0.14 0 0 1 -0.108,0 l -0.28,-0.12 c 0.088,-0.075 0.081,-0.144 -0.022,-0.204 -0.415,-0.219 -0.832,-0.43 -1.25,-0.636 a 9.546,9.546 0 0 1 -0.68,-0.647 c -0.07,-0.17 -0.023,-0.3 0.14,-0.388 z m -0.777,0 c 0.177,0.097 0.216,0.234 0.118,0.41 -0.217,0.22 -0.43,0.43 -0.636,0.625 -0.454,0.204 -0.897,0.434 -1.326,0.69 a 0.19,0.19 0 0 0 -0.032,0.108 2.726,2.726 0 0 0 -0.26,0.162 0.14,0.14 0 0 1 -0.107,0 C 9.199,14.795 9,14.62 8.797,14.451 A 1.693,1.693 0 0 1 8.409,13.761 1.06,1.06 0 0 1 8.441,13.33 c 0.072,0.166 0.162,0.324 0.27,0.474 0.198,0.177 0.388,0.36 0.571,0.55 0.05,0.046 0.107,0.079 0.173,0.097 a 6.597,6.597 0 0 1 1.164,-0.658 6.097,6.097 0 0 0 1.014,-0.808 z"
       fill="#be4229"
       id="path14" />
    <path
       d="m 12.948,14.02 c 0.419,0.205 0.836,0.417 1.251,0.636 0.103,0.06 0.11,0.129 0.022,0.205 a 1.88,1.88 0 0 0 -0.259,0.215 c -0.428,0.295 -0.859,0.586 -1.294,0.874 l -0.323,0.28 a 0.857,0.857 0 0 1 -0.324,0.162 0.446,0.446 0 0 1 -0.237,-0.097 4.154,4.154 0 0 1 -0.388,-0.323 C 10.954,15.677 10.516,15.379 10.08,15.076 A 1.422,1.422 0 0 1 9.757,14.818 0.19,0.19 0 0 1 9.789,14.71 c 0.43,-0.256 0.872,-0.486 1.326,-0.69 0.245,-0.112 0.497,-0.209 0.755,-0.291 0.194,-0.02 0.38,0.009 0.56,0.086 0.171,0.075 0.344,0.143 0.518,0.205 z"
       fill="#fefefd"
       id="path15" />
    <path
       d="m 10.08,15.076 c 0.435,0.303 0.874,0.6 1.316,0.896 0.123,0.115 0.252,0.223 0.388,0.323 0.07,0.055 0.148,0.088 0.237,0.097 a 0.857,0.857 0 0 0 0.323,-0.162 l 0.324,-0.28 c 0.435,-0.288 0.866,-0.58 1.294,-0.873 0.11,0.056 0.213,0.12 0.313,0.194 a 0.26,0.26 0 0 1 -0.097,0.183 c -0.5,0.368 -1.01,0.72 -1.532,1.057 a 4.67,4.67 0 0 1 -0.41,0.345 c -0.175,0.11 -0.34,0.095 -0.495,-0.043 l -0.324,-0.28 A 21.22,21.22 0 0 1 9.79,15.4 0.115,0.115 0 0 1 9.768,15.292 c 0.093,-0.09 0.197,-0.163 0.313,-0.216 z"
       fill="#be4128"
       id="path16" />
  </g>
  <defs
     id="defs17">
    <radialGradient
       id="a"
       cx="0"
       cy="0"
       r="1"
       gradientTransform="matrix(0,21.347,-21.347,0,12,1.3267)"
       gradientUnits="userSpaceOnUse">
      <stop
         stop-color="#ffffff"
         offset="0"
         id="stop16" />
      <stop
         stop-color="#ffc4b9"
         offset="1"
         id="stop17" />
    </radialGradient>
  </defs>
</svg>
