<?xml version="1.0" encoding="UTF-8" standalone="no"?>
<svg
   width="64"
   height="64"
   fill="none"
   version="1.1"
   id="svg21"
   sodipodi:docname="calc.svg"
   inkscape:version="1.3.2 (091e20ef0f, 2023-11-25, custom)"
   xmlns:inkscape="http://www.inkscape.org/namespaces/inkscape"
   xmlns:sodipodi="http://sodipodi.sourceforge.net/DTD/sodipodi-0.dtd"
   xmlns="http://www.w3.org/2000/svg"
   xmlns:svg="http://www.w3.org/2000/svg">
  <sodipodi:namedview
     id="namedview21"
     pagecolor="#ffffff"
     bordercolor="#666666"
     borderopacity="1.0"
     inkscape:showpageshadow="2"
     inkscape:pageopacity="0.0"
     inkscape:pagecheckerboard="0"
     inkscape:deskcolor="#d1d1d1"
     inkscape:zoom="10.330825"
     inkscape:cx="21.101897"
     inkscape:cy="24.489816"
     inkscape:window-width="1920"
     inkscape:window-height="1050"
     inkscape:window-x="0"
     inkscape:window-y="30"
     inkscape:window-maximized="1"
     inkscape:current-layer="svg21" />
  <path
     d="M 31.39834,1.0054 A 90.203106,90.203106 0 0 0 26.195594,1.1705675 C 25.88741,1.2570131 25.564877,1.2971958 25.226616,1.2971958 A 39.463859,39.463859 0 0 0 19.027407,2.2992113 C 10.277706,4.3832695 4.7612223,9.7685923 2.4723185,18.45797 A 52.148671,52.148671 0 0 0 1.0188646,31.957711 53.558094,53.558094 0 0 0 2.2796503,44.670147 C 4.4501625,53.97798 10.220342,59.670924 19.545089,61.742776 a 60.041442,60.041442 0 0 0 15.366099,1.161675 43.974014,43.974014 0 0 0 13.439135,-2.32335 c 5.372722,-1.965666 9.259349,-5.5489 11.655369,-10.746854 a 33.826165,33.826165 0 0 0 2.521543,-9.348425 79.773372,79.773372 0 0 0 0.467985,-6.9369 v -3.584164 a 79.773372,79.773372 0 0 0 0,-0.214712 79.773372,79.773372 0 0 0 -0.143141,-3.154572 C 62.626571,22.908422 61.920224,19.316366 60.726922,15.820995 58.612787,10.017835 54.699945,5.9403725 48.994599,3.5877627 A 38.618205,38.618205 0 0 0 38.335974,1.1983388 90.203106,90.203106 0 0 0 33.028649,1.0056452 Z"
     fill="url(#a)"
     stroke="#808080"
     stroke-opacity="0.2"
     vector-effect="non-scaling-stroke"
     style="fill:url(#a);stroke-width:2.81885;-inkscape-stroke:hairline"
     id="path1" />
  <g
     transform="matrix(3.1675384,0,0,3.1675384,-5.9195302,-6.1102156)"
     fill="#1a1a1a"
     opacity="0.15"
     stroke-width="0.99629"
     id="g6">
    <g
       transform="matrix(1.0074,0,0,1,-0.724,0.038)"
       filter="url(#b)"
       opacity="0.7"
       id="g2">
      <path
         d="M 11.497,10.31 V 6.767 c 0,-1.1 -0.46,-1.544 -1.605,-1.544 H 6.985 C 5.841,5.223 5.38,5.668 5.38,6.767 v 3.534 c 0,1.107 0.46,1.544 1.605,1.544 h 2.907 c 1.144,0.008 1.605,-0.437 1.605,-1.537 z"
         fill="#1a1a1a"
         stroke-width="0.99629"
         id="path2" />
    </g>
    <g
       transform="matrix(1.0074,0,0,1,-0.724,0.038)"
       filter="url(#c)"
       opacity="0.7"
       id="g3">
      <path
         d="m 11.497,18.163 v -3.54 c 0,-1.1 -0.46,-1.545 -1.605,-1.545 H 6.985 c -1.144,0 -1.605,0.445 -1.605,1.544 v 3.534 c 0,1.107 0.46,1.544 1.605,1.544 h 2.907 c 1.144,0.008 1.605,-0.437 1.605,-1.537"
         fill="#1a1a1a"
         stroke-width="0.99629"
         id="path3" />
    </g>
    <g
       transform="matrix(1.0074,0,0,1,-0.724,0.038)"
       filter="url(#d)"
       opacity="0.7"
       id="g4">
      <path
         d="M 18.886,10.31 V 6.767 c 0,-1.1 -0.461,-1.544 -1.605,-1.544 h -2.908 c -1.144,0 -1.604,0.445 -1.604,1.544 v 3.534 c 0,1.107 0.46,1.544 1.604,1.544 h 2.908 c 1.144,0.008 1.605,-0.437 1.605,-1.537 z"
         fill="#1a1a1a"
         stroke-width="0.99629"
         id="path4" />
    </g>
    <g
       transform="matrix(1.0074,0,0,1,-0.724,0.038)"
       filter="url(#e)"
       opacity="0.7"
       id="g5">
      <path
         d="m 18.886,18.163 v -3.54 c 0,-1.1 -0.461,-1.545 -1.605,-1.545 h -2.908 c -1.144,0 -1.604,0.445 -1.604,1.544 v 3.534 c 0,1.107 0.46,1.544 1.604,1.544 h 2.908 c 1.144,0.008 1.605,-0.437 1.605,-1.537"
         fill="#1a1a1a"
         stroke-width="0.99629"
         id="path5" />
    </g>
  </g>
  <g
     stroke-width="1.1237"
     id="g12"
     transform="matrix(2.8188471,0,0,2.8188471,-1.8274099,-1.8286688)">
    <path
       d="m 11.305,9.6452 v -3.978 c 0,-1.2361 -0.51691,-1.7361 -1.8035,-1.7361 H 6.2348 c -1.2855,0 -1.8035,0.50006 -1.8035,1.735 v 3.9701 c 0,1.2451 0.51691,1.7361 1.8035,1.7361 h 3.2667 c 1.2855,0.009 1.8035,-0.49106 1.8035,-1.7272"
       fill="#e6e6e6"
       id="path6" />
    <path
       d="M 9.4854,7.871 H 6.2502 c -0.11012,0 -0.20227,-0.10001 -0.20227,-0.21913 0,-0.11912 0.092146,-0.21912 0.20227,-0.21912 h 3.2352 c 0.11013,0 0.20227,0.098887 0.20227,0.21912 0,0.11912 -0.092145,0.21913 -0.20227,0.21913"
       fill="#131313"
       id="path7" />
    <path
       d="M 7.8673,9.624 C 7.75717,9.624 7.66503,9.52399 7.66503,9.40488 v -3.5072 c 0,-0.12024 0.092146,-0.21912 0.20227,-0.21912 0.11125,0 0.20227,0.098887 0.20227,0.21912 v 3.506 c 0,0.11912 -0.091022,0.21913 -0.20227,0.21913 z"
       fill="#232323"
       id="path8" />
    <path
       d="m 11.305,18.473 v -3.9802 c 0,-1.2361 -0.51691,-1.735 -1.8035,-1.735 H 6.2348 c -1.2855,0 -1.8035,0.50006 -1.8035,1.735 v 3.9712 c 0,1.2439 0.51691,1.735 1.8035,1.735 h 3.2667 c 1.2855,0.009 1.8035,-0.49106 1.8035,-1.7272 z"
       fill="#e6e6e6"
       id="path9" />
    <path
       d="M 9.4854,16.697 H 6.2502 c -0.11012,0 -0.20227,-0.09889 -0.20227,-0.21913 0,-0.12024 0.092146,-0.21913 0.20227,-0.21913 h 3.2352 c 0.11013,0 0.20227,0.09888 0.20227,0.21913 0,0.12024 -0.092145,0.21913 -0.20227,0.21913"
       fill="#000000"
       id="path10" />
    <path
       d="m 19.607,9.6452 v -3.978 c 0,-1.2361 -0.51691,-1.7361 -1.8024,-1.7361 h -3.2678 c -1.2855,0 -1.8024,0.50006 -1.8024,1.735 v 3.9701 c 0,1.2451 0.51691,1.7361 1.8024,1.7361 h 3.2678 c 1.2855,0.009 1.8035,-0.49106 1.8035,-1.7272 z"
       fill="#e6e6e6"
       id="path11" />
    <path
       d="M 17.584,6.4819 15.0557,9.207 a 0.21351,0.21351 0 0 1 -0.31576,0 0.25845,0.25845 0 0 1 -0.0011,-0.34274 l 2.5272,-2.7251 a 0.21351,0.21351 0 0 1 0.31689,0 0.25845,0.25845 0 0 1 0,0.34274 z"
       fill="#010101"
       id="path12" />
  </g>
  <path
     d="m 40.644159,18.023625 c 0.772899,0 1.400065,-0.674719 1.400065,-1.507773 0,-0.833082 -0.627194,-1.507773 -1.396908,-1.507773 -0.7729,0 -1.396908,0.674719 -1.396908,1.507773 0,0.833082 0.624008,1.507773 1.393751,1.507773 m 6.217813,6.448959 c 0.772899,0 1.396907,-0.67472 1.396907,-1.507773 0,-0.833054 -0.624008,-1.507774 -1.39375,-1.507774 -0.7729,0 -1.400065,0.67472 -1.400065,1.507774 0,0.833053 0.627193,1.507773 1.396908,1.507773"
     fill="#000000"
     stroke="#090909"
     stroke-linecap="round"
     stroke-linejoin="round"
     stroke-width="0.865386"
     id="path13" />
  <path
     d="M 53.441724,50.243893 V 39.024318 c 0,-3.484377 -1.45709,-4.8907 -5.08069,-4.8907 h -9.211428 c -3.623628,0 -5.08069,1.409593 -5.08069,4.8907 v 11.194205 c 0,3.506364 1.45709,4.8907 5.08069,4.8907 h 9.211428 c 3.623628,0.02537 5.08069,-1.384223 5.08069,-4.868713 z"
     fill="url(#i)"
     stroke-width="3.16754"
     id="path14"
     style="fill:url(#i)" />
  <path
     d="m 48.311423,47.013494 h -9.116434 c -0.313596,0 -0.570168,-0.278756 -0.570168,-0.617694 0,-0.338938 0.256572,-0.617694 0.570168,-0.617694 h 9.116434 c 0.313597,0 0.570168,0.278756 0.570168,0.617694 0,0.338938 -0.256571,0.617694 -0.570168,0.617694 m 0,-3.550901 h -9.116434 c -0.313596,0 -0.570168,-0.28507 -0.570168,-0.620852 0,-0.335781 0.256572,-0.617693 0.570168,-0.617693 h 9.116434 c 0.313597,0 0.570168,0.278727 0.570168,0.617693 0,0.338939 -0.256571,0.617694 -0.570168,0.617694 z"
     fill="#ffffff"
     stroke-width="3.16754"
     id="path15" />
  <defs
     id="defs21">
    <linearGradient
       id="i"
       x1="15.809"
       x2="15.809"
       y1="12.837"
       y2="19.056999"
       gradientTransform="matrix(3.1675385,0,0,3.1675385,-5.9195302,-6.1102157)"
       gradientUnits="userSpaceOnUse">
      <stop
         stop-color="#ff8119"
         offset="0"
         id="stop15" />
      <stop
         stop-color="#C05A00"
         offset="1"
         id="stop16" />
    </linearGradient>
    <filter
       id="b"
       x="5.3439999"
       y="5.1880002"
       width="6.1890001"
       height="6.6939998"
       color-interpolation-filters="sRGB"
       filterUnits="userSpaceOnUse">
      <feFlood
         flood-opacity="0"
         result="BackgroundImageFix"
         id="feFlood16" />
      <feBlend
         in="SourceGraphic"
         in2="BackgroundImageFix"
         result="shape"
         id="feBlend16"
         mode="normal" />
      <feGaussianBlur
         result="effect1_foregroundBlur_8_122"
         stdDeviation=".018"
         id="feGaussianBlur16" />
    </filter>
    <filter
       id="c"
       x="5.3439999"
       y="13.042"
       width="6.1890001"
       height="6.6939998"
       color-interpolation-filters="sRGB"
       filterUnits="userSpaceOnUse">
      <feFlood
         flood-opacity="0"
         result="BackgroundImageFix"
         id="feFlood17" />
      <feBlend
         in="SourceGraphic"
         in2="BackgroundImageFix"
         result="shape"
         id="feBlend17"
         mode="normal" />
      <feGaussianBlur
         result="effect1_foregroundBlur_8_122"
         stdDeviation=".018"
         id="feGaussianBlur17" />
    </filter>
    <filter
       id="d"
       x="12.732"
       y="5.1880002"
       width="6.1890001"
       height="6.6939998"
       color-interpolation-filters="sRGB"
       filterUnits="userSpaceOnUse">
      <feFlood
         flood-opacity="0"
         result="BackgroundImageFix"
         id="feFlood18" />
      <feBlend
         in="SourceGraphic"
         in2="BackgroundImageFix"
         result="shape"
         id="feBlend18"
         mode="normal" />
      <feGaussianBlur
         result="effect1_foregroundBlur_8_122"
         stdDeviation=".018"
         id="feGaussianBlur18" />
    </filter>
    <filter
       id="e"
       x="12.732"
       y="13.042"
       width="6.1890001"
       height="6.6939998"
       color-interpolation-filters="sRGB"
       filterUnits="userSpaceOnUse">
      <feFlood
         flood-opacity="0"
         result="BackgroundImageFix"
         id="feFlood19" />
      <feBlend
         in="SourceGraphic"
         in2="BackgroundImageFix"
         result="shape"
         id="feBlend19"
         mode="normal" />
      <feGaussianBlur
         result="effect1_foregroundBlur_8_122"
         stdDeviation=".018"
         id="feGaussianBlur19" />
    </filter>
    <linearGradient
       id="a"
       x1="0.1"
       x2="1.2"
       y2="1"
       gradientTransform="matrix(62.014636,0,0,62.014636,-1.8408829,-1.8133174)"
       gradientUnits="userSpaceOnUse">
      <stop
         stop-color="#e36900"
         offset=".2"
         id="stop19" />
      <stop
         stop-color="#939393"
         offset=".20328"
         id="stop20" />
      <stop
         stop-color="#cacaca"
         offset="1"
         id="stop21" />
    </linearGradient>
  </defs>
</svg>
