<?xml version="1.0" encoding="UTF-8" standalone="no"?>
<svg
   width="64"
   height="64"
   fill="none"
   version="1.1"
   viewBox="1 1 58.666667 58.666667"
   id="svg80"
   sodipodi:docname="firefox.svg"
   inkscape:version="1.3.2 (091e20ef0f, 2023-11-25, custom)"
   xmlns:inkscape="http://www.inkscape.org/namespaces/inkscape"
   xmlns:sodipodi="http://sodipodi.sourceforge.net/DTD/sodipodi-0.dtd"
   xmlns="http://www.w3.org/2000/svg"
   xmlns:svg="http://www.w3.org/2000/svg">
  <sodipodi:namedview
     id="namedview80"
     pagecolor="#ffffff"
     bordercolor="#000000"
     borderopacity="0.25"
     inkscape:showpageshadow="2"
     inkscape:pageopacity="0.0"
     inkscape:pagecheckerboard="0"
     inkscape:deskcolor="#d1d1d1"
     inkscape:zoom="4.9344788"
     inkscape:cx="21.481499"
     inkscape:cy="35.262083"
     inkscape:window-width="1920"
     inkscape:window-height="1050"
     inkscape:window-x="0"
     inkscape:window-y="30"
     inkscape:window-maximized="1"
     inkscape:current-layer="svg80" />
  <defs
     id="defs70">
    <radialGradient
       id="a"
       cx="0"
       cy="0"
       r="1"
       gradientTransform="matrix(0,29.036053,-29.036053,0,30.333255,1.2985155)"
       gradientUnits="userSpaceOnUse">
      <stop
         style="stop-color:#fff8ca;stop-opacity:1;"
         offset="0"
         id="stop1" />
      <stop
         style="stop-color:#ffc2ad;stop-opacity:1;"
         offset="1"
         id="stop2" />
    </radialGradient>
    <radialGradient
       id="c"
       cx="-7907.2002"
       cy="-8515.0996"
       r="80.796997"
       gradientTransform="matrix(0.20007,0,0,0.20007,1600.4,1710.5)"
       gradientUnits="userSpaceOnUse">
      <stop
         style="stop-color:#ffbd4f"
         offset="0"
         id="stop3" />
      <stop
         style="stop-color:#ffbd4f"
         offset=".129"
         id="stop4" />
      <stop
         style="stop-color:#ffac31"
         offset=".186"
         id="stop5" />
      <stop
         style="stop-color:#ff9d17"
         offset=".247"
         id="stop6" />
      <stop
         style="stop-color:#ff980e"
         offset=".283"
         id="stop7" />
      <stop
         style="stop-color:#ff563b"
         offset=".403"
         id="stop8" />
      <stop
         style="stop-color:#ff3750"
         offset=".467"
         id="stop9" />
      <stop
         style="stop-color:#f5156c"
         offset=".71"
         id="stop10" />
      <stop
         style="stop-color:#eb0878"
         offset=".782"
         id="stop11" />
      <stop
         style="stop-color:#e50080"
         offset=".86"
         id="stop12" />
      <stop
         style="stop-color:#e50080"
         offset="1"
         id="stop13" />
    </radialGradient>
    <radialGradient
       id="d"
       cx="-7927"
       cy="-8533.5"
       r="58.534"
       gradientTransform="matrix(0.15246,0,0,0.15246,1218.8,1302.5)"
       gradientUnits="userSpaceOnUse">
      <stop
         style="stop-color:#fff44f"
         offset="0"
         id="stop14" />
      <stop
         style="stop-color:#fff44f"
         offset=".132"
         id="stop15" />
      <stop
         style="stop-color:#ffdc3e"
         offset=".252"
         id="stop16" />
      <stop
         style="stop-color:#ff9d12"
         offset=".506"
         id="stop17" />
      <stop
         style="stop-color:#ff980e"
         offset=".526"
         id="stop18" />
      <stop
         style="stop-color:#ff980e"
         offset="1"
         id="stop19" />
    </radialGradient>
    <radialGradient
       id="e"
       cx="-7945.6001"
       cy="-8461"
       r="38.471001"
       gradientTransform="matrix(0.15246,0,0,0.15246,1218.8,1302.5)"
       gradientUnits="userSpaceOnUse">
      <stop
         style="stop-color:#3a8ee6"
         offset="0"
         id="stop20" />
      <stop
         style="stop-color:#3a8ee6"
         offset=".353"
         id="stop21" />
      <stop
         style="stop-color:#5c79f0"
         offset=".472"
         id="stop22" />
      <stop
         style="stop-color:#9059ff"
         offset=".669"
         id="stop23" />
      <stop
         style="stop-color:#c139e6"
         offset="1"
         id="stop24" />
    </radialGradient>
    <radialGradient
       id="f"
       cx="-7937.7002"
       cy="-8518.4004"
       r="27.676001"
       gradientTransform="matrix(0.15246,0,0,0.15246,1218.8,1302.5)"
       gradientUnits="userSpaceOnUse">
      <stop
         style="stop-color:#ffe226"
         offset="0"
         id="stop25" />
      <stop
         style="stop-color:#ffdb27"
         offset=".121"
         id="stop26" />
      <stop
         style="stop-color:#ffc82a"
         offset=".295"
         id="stop27" />
      <stop
         style="stop-color:#ffa930"
         offset=".502"
         id="stop28" />
      <stop
         style="stop-color:#ff7e37"
         offset=".732"
         id="stop29" />
      <stop
         style="stop-color:#ff7139"
         offset=".792"
         id="stop30" />
      <stop
         style="stop-color:#ff7139"
         offset="1"
         id="stop31" />
    </radialGradient>
    <radialGradient
       id="g"
       cx="-7916"
       cy="-8536"
       r="118.08"
       gradientTransform="matrix(0.15246,0,0,0.15246,1218.8,1302.5)"
       gradientUnits="userSpaceOnUse">
      <stop
         style="stop-color:#fff44f"
         offset="0"
         id="stop32" />
      <stop
         style="stop-color:#fff44f"
         offset=".113"
         id="stop33" />
      <stop
         style="stop-color:#ff980e"
         offset=".456"
         id="stop34" />
      <stop
         style="stop-color:#ff5634"
         offset=".622"
         id="stop35" />
      <stop
         style="stop-color:#ff3647"
         offset=".716"
         id="stop36" />
      <stop
         style="stop-color:#e31587"
         offset=".904"
         id="stop37" />
      <stop
         style="stop-color:#e31587"
         offset="1"
         id="stop38" />
    </radialGradient>
    <radialGradient
       id="h"
       cx="-7927.2002"
       cy="-8522.9004"
       r="86.499001"
       gradientTransform="matrix(0.016,0.1517,-0.09956,0.01052,-711.24,1294.3)"
       gradientUnits="userSpaceOnUse">
      <stop
         style="stop-color:#fff44f"
         offset="0"
         id="stop39" />
      <stop
         style="stop-color:#ffe847"
         offset=".06"
         id="stop40" />
      <stop
         style="stop-color:#ffc830"
         offset=".168"
         id="stop41" />
      <stop
         style="stop-color:#ff980e"
         offset=".304"
         id="stop42" />
      <stop
         style="stop-color:#ff8b16"
         offset=".356"
         id="stop43" />
      <stop
         style="stop-color:#ff672a"
         offset=".455"
         id="stop44" />
      <stop
         style="stop-color:#ff3647"
         offset=".57"
         id="stop45" />
      <stop
         style="stop-color:#e31587"
         offset=".737"
         id="stop46" />
      <stop
         style="stop-color:#e31587"
         offset="1"
         id="stop47" />
    </radialGradient>
    <radialGradient
       id="i"
       cx="-7938.3999"
       cy="-8508.2002"
       r="73.720001"
       gradientTransform="matrix(0.15246,0,0,0.15246,1218.8,1302.5)"
       gradientUnits="userSpaceOnUse">
      <stop
         style="stop-color:#fff44f"
         offset="0"
         id="stop48" />
      <stop
         style="stop-color:#fff44f"
         offset=".137"
         id="stop49" />
      <stop
         style="stop-color:#ff980e"
         offset=".48"
         id="stop50" />
      <stop
         style="stop-color:#ff5634"
         offset=".592"
         id="stop51" />
      <stop
         style="stop-color:#ff3647"
         offset=".655"
         id="stop52" />
      <stop
         style="stop-color:#e31587"
         offset=".904"
         id="stop53" />
      <stop
         style="stop-color:#e31587"
         offset="1"
         id="stop54" />
    </radialGradient>
    <radialGradient
       id="j"
       cx="-7918.8999"
       cy="-8503.9004"
       r="80.685997"
       gradientTransform="matrix(0.15246,0,0,0.15246,1218.8,1302.5)"
       gradientUnits="userSpaceOnUse">
      <stop
         style="stop-color:#fff44f"
         offset="0"
         id="stop55" />
      <stop
         style="stop-color:#fff44f"
         offset=".094"
         id="stop56" />
      <stop
         style="stop-color:#ffe141"
         offset=".231"
         id="stop57" />
      <stop
         style="stop-color:#ffaf1e"
         offset=".509"
         id="stop58" />
      <stop
         style="stop-color:#ff980e"
         offset=".626"
         id="stop59" />
      <stop
         style="stop-color:#ff980e"
         offset="1"
         id="stop60" />
    </radialGradient>
    <linearGradient
       id="b"
       x1="70.786003"
       x2="6.447"
       y1="12.393"
       y2="74.468002"
       gradientTransform="matrix(0.15246,0,0,0.15246,2.9,2.903)"
       gradientUnits="userSpaceOnUse">
      <stop
         style="stop-color:#fff44f"
         offset="0"
         id="stop61" />
      <stop
         style="stop-color:#fff44f"
         offset=".048"
         id="stop62" />
      <stop
         style="stop-color:#ffe847"
         offset=".111"
         id="stop63" />
      <stop
         style="stop-color:#ffc830"
         offset=".225"
         id="stop64" />
      <stop
         style="stop-color:#ff980e"
         offset=".368"
         id="stop65" />
      <stop
         style="stop-color:#ff8b16"
         offset=".401"
         id="stop66" />
      <stop
         style="stop-color:#ff672a"
         offset=".462"
         id="stop67" />
      <stop
         style="stop-color:#ff3647"
         offset=".534"
         id="stop68" />
      <stop
         style="stop-color:#e31587"
         offset=".705"
         id="stop69" />
      <stop
         style="stop-color:#e31587"
         offset="1"
         id="stop70" />
    </linearGradient>
  </defs>
  <path
     d="m 23.979889,1.6021161 c 0.316732,0 0.620279,-0.042232 0.908007,-0.1240584 a 83.971765,83.971765 0 0 1 11.371053,0.026399 36.109215,36.109215 0 0 1 9.980023,2.2409472 c 5.347605,2.1987309 9.000851,6.0207349 10.985786,11.4502761 1.108591,3.273135 1.784326,6.640959 1.990199,10.090992 a 74.706382,74.706382 0 0 1 -0.300915,13.007619 31.58912,31.58912 0 0 1 -2.365019,8.755311 c -2.243606,4.867378 -5.886163,8.222179 -10.91443,10.061961 -4.072699,1.377843 -8.261791,2.106348 -12.582742,2.174964 A 56.303137,56.303137 0 0 1 18.661072,58.199045 C 9.9296352,56.261644 4.5291252,50.929722 2.4939969,42.211309 A 50.128023,50.128023 0 0 1 1.3115008,30.307125 48.836567,48.836567 0 0 1 2.6734984,17.671748 C 4.8167998,9.5342193 9.9848756,4.4872313 18.180736,2.5367531 a 36.13906,36.13906 0 0 1 5.799072,-0.9344063 z"
     style="fill:url(#a);fill-rule:evenodd;stroke-width:2.63954"
     id="path70" />
  <g
     transform="matrix(2.6233376,0,0,2.6233376,-1.1467149,-1.1465958)"
     style="stroke-width:1.0161"
     id="g80">
    <g
       style="stroke-width:1.0161"
       id="g71">
      <path
         transform="matrix(1.3122,0,0,1.3122,0.19,0.19)"
         d="M 14.473,6.992 C 14.219,6.375 13.695,5.711 13.289,5.5 a 6.19,6.19 0 0 1 0.598,1.793 V 7.301 C 13.219,5.637 12.086,4.965 11.164,3.504 A 4.566,4.566 0 0 1 11.023,3.277 C 11,3.234 10.977,3.195 10.957,3.152 A 1.05,1.05 0 0 1 10.871,2.922 0.017,0.017 0 0 0 10.855,2.906 c -0.003,-0.004 -0.007,-0.004 -0.011,0 L 10.84,2.91 V 2.906 C 9.355,3.773 8.852,5.383 8.805,6.188 A 2.952,2.952 0 0 0 7.18,6.812 1.514,1.514 0 0 0 7.027,6.699 2.757,2.757 0 0 1 7.012,5.254 4.345,4.345 0 0 0 5.59,6.352 H 5.586 C 5.352,6.055 5.367,5.078 5.383,4.875 A 1.13,1.13 0 0 0 5.184,4.977 4.636,4.636 0 0 0 4.605,5.473 5.24,5.24 0 0 0 4.055,6.137 5,5 0 0 0 3.262,7.926 L 3.254,7.965 A 5.832,5.832 0 0 0 3.195,8.332 V 8.348 A 5.172,5.172 0 0 0 3.098,9.16 v 0.031 a 5.912,5.912 0 0 0 5.41,5.883 5.908,5.908 0 0 0 6.324,-4.883 6,6 0 0 1 0.027,-0.23 6.078,6.078 0 0 0 -0.386,-2.969 z M 7.664,11.621 7.746,11.66 7.75,11.664 A 0.862,0.862 0 0 0 7.664,11.621 Z M 13.891,7.305 V 7.297 Z"
         style="fill:url(#b)"
         id="path71" />
    </g>
    <path
       transform="matrix(0.98418,0,0,0.98418,-0.666,-0.92)"
       d="m 20.051,10.494 c -0.333,-0.81 -1.02,-1.68 -1.553,-1.958 0.379,0.738 0.645,1.533 0.784,2.353 v 0.016 a 7.01,7.01 0 0 1 -0.241,5.233 c -0.887,1.907 -3.04,3.86 -6.408,3.768 C 9,19.798 5.795,17.1 5.195,13.565 c -0.107,-0.559 0,-0.841 0.052,-1.291 a 6.15,6.15 0 0 0 -0.123,1.065 v 0.041 a 7.757,7.757 0 0 0 7.1,7.72 7.753,7.753 0 0 0 8.298,-6.408 c 0.01,-0.102 0.021,-0.2 0.036,-0.302 a 7.975,7.975 0 0 0 -0.507,-3.896 z"
       style="fill:url(#c)"
       id="path72" />
    <g
       style="stroke-width:1.0324"
       id="g79">
      <path
         transform="matrix(1.2915,0,0,1.2915,0.376,0.377)"
         d="M 11.602,7.688 A 0.984,0.984 0 0 0 11.641,7.715 3.272,3.272 0 0 0 11.09,7 C 9.254,5.164 10.609,3.016 10.84,2.906 9.355,3.773 8.852,5.383 8.805,6.188 8.875,6.184 8.945,6.176 9.016,6.176 a 2.989,2.989 0 0 1 2.586,1.512 z"
         style="fill:url(#d)"
         id="path73" />
      <path
         transform="matrix(1.2915,0,0,1.2915,0.376,0.377)"
         d="M 9.02,8.055 C 9.008,8.203 8.488,8.711 8.309,8.711 c -1.684,0 -1.954,1.016 -1.954,1.016 0.075,0.855 0.668,1.558 1.391,1.933 0.031,0.016 0.066,0.031 0.098,0.047 a 2.584,2.584 0 0 0 0.945,0.219 c 2.945,0.14 3.516,-3.52 1.391,-4.582 0.5,-0.067 1.008,0.058 1.422,0.344 A 2.989,2.989 0 0 0 9.016,6.176 c -0.071,0 -0.141,0.008 -0.211,0.012 A 2.952,2.952 0 0 0 7.18,6.812 c 0.09,0.079 0.191,0.18 0.406,0.391 0.402,0.395 1.43,0.805 1.434,0.852 z"
         style="fill:url(#e)"
         id="path74" />
      <path
         transform="matrix(1.2915,0,0,1.2915,0.376,0.377)"
         d="M 6.906,6.617 7.027,6.699 A 2.716,2.716 0 0 1 7.012,5.254 4.403,4.403 0 0 0 5.586,6.352 c 0.031,0 0.887,-0.016 1.32,0.265 z"
         style="fill:url(#f)"
         id="path75" />
      <path
         transform="matrix(1.2915,0,0,1.2915,0.376,0.377)"
         d="m 3.152,9.332 c 0.457,2.695 2.899,4.75 5.672,4.832 2.567,0.07 4.203,-1.418 4.883,-2.871 A 5.38,5.38 0 0 0 13.891,7.305 V 7.297 c 0,-0.004 -0.004,-0.004 0,-0.004 v 0.008 c 0.211,1.371 -0.489,2.695 -1.575,3.594 l -0.004,0.007 C 10.191,12.629 8.164,11.945 7.75,11.664 7.723,11.648 7.695,11.637 7.664,11.621 6.43,11.031 5.918,9.902 6.027,8.938 A 1.52,1.52 0 0 1 4.629,8.059 2.226,2.226 0 0 1 6.801,7.969 C 7.5,8.289 8.297,8.32 9.02,8.059 9.016,8.008 7.988,7.602 7.586,7.203 A 7.303,7.303 0 0 0 7.184,6.816 1.946,1.946 0 0 0 7.031,6.699 L 6.906,6.617 C 6.477,6.34 5.621,6.355 5.59,6.355 5.355,6.059 5.371,5.078 5.383,4.875 A 1.052,1.052 0 0 0 5.188,4.98 4.355,4.355 0 0 0 4.609,5.473 4.95,4.95 0 0 0 4.055,6.137 5,5 0 0 0 3.262,7.926 C 3.258,7.938 3.047,8.855 3.152,9.332 Z"
         style="fill:url(#g)"
         id="path76" />
      <path
         transform="matrix(1.2915,0,0,1.2915,0.376,0.377)"
         d="m 11.09,7 c 0.219,0.211 0.402,0.453 0.551,0.715 l 0.089,0.074 c 1.336,1.234 0.637,2.981 0.582,3.106 1.09,-0.899 1.786,-2.223 1.579,-3.594 C 13.219,5.637 12.086,4.965 11.164,3.504 A 4.566,4.566 0 0 1 11.023,3.277 C 11,3.234 10.977,3.195 10.957,3.152 A 1.05,1.05 0 0 1 10.871,2.922 0.017,0.017 0 0 0 10.855,2.906 c -0.003,-0.004 -0.007,-0.004 -0.011,0 L 10.84,2.91 C 10.609,3.016 9.254,5.164 11.09,7 Z"
         style="fill:url(#h)"
         id="path77" />
      <path
         transform="matrix(1.2915,0,0,1.2915,0.376,0.377)"
         d="M 11.727,7.789 C 11.699,7.762 11.668,7.738 11.641,7.715 11.629,7.707 11.613,7.699 11.602,7.688 A 2.037,2.037 0 0 0 10.176,7.344 c 2.129,1.062 1.558,4.722 -1.387,4.582 A 2.56,2.56 0 0 1 7.844,11.707 C 7.812,11.691 7.777,11.676 7.746,11.66 l 0.004,0.004 c 0.41,0.277 2.438,0.965 4.559,-0.766 l 0.003,-0.007 C 12.367,10.77 13.066,9.023 11.727,7.789 Z"
         style="fill:url(#i)"
         id="path78" />
      <path
         transform="matrix(1.2915,0,0,1.2915,0.376,0.377)"
         d="m 6.355,9.727 c 0,0 0.27,-1.016 1.954,-1.016 0.179,0 0.699,-0.508 0.711,-0.656 C 8.297,8.316 7.5,8.285 6.801,7.969 A 2.234,2.234 0 0 0 4.625,8.055 c 0.254,0.547 0.801,0.89 1.402,0.883 -0.109,0.964 0.399,2.089 1.637,2.683 L 7.746,11.66 C 7.023,11.285 6.43,10.582 6.355,9.727 Z"
         style="fill:url(#j)"
         id="path79" />
    </g>
  </g>
</svg>
